<?xml version="1.0" standalone="no"?>
<!DOCTYPE svg PUBLIC "-//W3C//DTD SVG 20010904//EN"
 "http://www.w3.org/TR/2001/REC-SVG-20010904/DTD/svg10.dtd">
<svg version="1.0" xmlns="http://www.w3.org/2000/svg"
 width="291.000000pt" height="291.000000pt" viewBox="0 0 291.000000 291.000000"
 preserveAspectRatio="xMidYMid meet">
<metadata>
Created by potrace 1.11, written by Peter Selinger 2001-2013
</metadata>
<g transform="translate(0.000000,291.000000) scale(0.100000,-0.100000)"
fill="#000000" stroke="none">
<path d="M1295 2614 c-352 -51 -643 -211 -828 -454 -62 -82 -197 -313 -227
-390 -78 -199 -80 -426 -5 -626 13 -35 49 -111 79 -169 31 -58 56 -112 56
-120 0 -8 5 -17 12 -21 8 -5 9 -2 4 11 -5 15 -4 16 9 5 22 -18 18 -5 -10 38
-23 35 -75 172 -74 197 0 6 11 -17 25 -50 32 -78 72 -155 92 -177 14 -16 14
-18 -1 -18 -10 0 -17 -5 -17 -12 0 -6 -3 -8 -7 -5 -3 4 -12 2 -19 -4 -22 -18
-107 -36 -156 -33 -66 4 -130 35 -177 84 -21 23 -42 37 -45 32 -9 -15 67 -84
122 -110 63 -28 150 -32 224 -9 l47 15 38 -67 c52 -91 189 -226 286 -283 70
-41 278 -119 354 -132 15 -3 52 -10 82 -16 37 -7 58 -7 65 0 5 5 17 10 26 9
10 0 9 -3 -5 -9 -16 -7 -11 -9 20 -9 23 -1 47 5 54 11 11 11 12 10 7 0 -6 -9
-1 -11 16 -8 12 3 47 8 77 11 342 36 551 104 713 233 115 92 161 155 251 342
80 167 94 204 123 315 31 121 43 333 25 440 -7 37 -11 69 -9 70 2 2 28 -1 58
-7 79 -14 173 -64 247 -132 35 -32 67 -55 71 -51 9 9 -76 87 -143 131 -57 38
-150 74 -192 74 -40 0 -46 8 -72 80 -47 130 -151 317 -171 305 -5 -3 -12 0
-16 6 -4 8 -3 9 4 5 7 -4 12 -4 12 0 0 30 -186 219 -282 287 -138 98 -311 178
-449 206 -80 17 -201 19 -294 5z m290 -19 c56 -12 205 -65 243 -85 20 -12 28
-18 17 -14 -106 37 -248 75 -281 77 -23 1 -40 5 -37 10 2 4 -8 7 -24 8 -66 2
-137 10 -142 15 -7 8 183 -2 224 -11z m-172 -11 c50 -3 93 -7 95 -9 3 -2 -40
-4 -94 -4 -55 -1 -110 -3 -124 -5 -14 -2 -49 -7 -78 -10 -30 -4 -74 -11 -99
-17 -25 -5 -48 -8 -50 -5 -6 5 162 45 205 48 17 1 32 6 32 11 0 4 5 5 11 1 6
-3 52 -8 102 -10z m252 -48 c66 -19 183 -75 266 -128 83 -53 227 -177 293
-251 32 -37 62 -64 67 -62 4 3 11 0 15 -6 4 -8 3 -9 -4 -5 -19 11 -15 2 29
-63 47 -70 88 -181 96 -258 5 -46 4 -53 -12 -53 -10 0 -52 -16 -93 -36 -114
-55 -217 -164 -376 -398 -134 -196 -216 -298 -326 -404 -65 -63 -172 -139
-200 -142 -37 -5 -52 2 -64 30 -17 43 -6 116 44 278 l40 133 123 152 c159 198
200 252 280 369 120 178 170 282 176 366 7 112 -114 124 -202 21 -107 -125
-243 -409 -378 -792 -27 -76 -63 -159 -80 -184 -104 -151 -315 -373 -384 -404
-55 -25 -73 -11 -99 76 -15 51 -31 80 -61 111 l-40 42 51 17 c29 10 65 28 80
41 24 19 27 26 18 41 -18 29 -78 29 -129 -1 l-43 -26 11 31 c7 17 41 65 76
107 308 370 495 660 508 788 6 55 -13 104 -39 104 -7 0 -5 -7 4 -17 46 -54 14
-157 -110 -353 -63 -99 -394 -530 -407 -530 -4 0 22 70 103 280 74 191 199
441 263 523 32 41 66 73 92 86 23 12 34 21 25 21 -112 0 -249 -205 -411 -615
-44 -113 -110 -293 -132 -362 -5 -16 -127 -116 -209 -171 l-68 -46 -21 24
c-47 57 -128 262 -152 385 -12 58 -15 314 -5 387 24 173 73 315 141 405 22 29
38 57 35 62 -3 5 2 15 12 22 15 13 16 12 3 -3 -29 -37 -2 -15 96 81 226 220
344 283 618 331 130 23 390 21 480 -4z m339 -142 c86 -57 157 -120 220 -197
21 -26 43 -44 49 -40 6 3 7 1 3 -6 -4 -6 -2 -20 5 -29 8 -9 -32 28 -87 84
-103 102 -210 188 -296 238 -27 15 -48 29 -48 31 0 10 84 -33 154 -81z m-1299
-40 c-16 -14 -72 -65 -123 -113 -52 -47 -96 -88 -100 -91 -3 -3 11 16 33 43
36 45 95 99 174 158 46 35 55 36 16 3z m1283 -234 c42 -45 -9 -182 -145 -383
-42 -62 -98 -141 -126 -177 -137 -174 -241 -306 -249 -314 -18 -22 55 180 137
374 171 404 307 582 383 500z m410 -150 c31 -55 85 -184 96 -230 5 -21 5 -22
-3 -5 -6 11 -20 44 -32 73 -16 38 -25 50 -31 40 -6 -9 -7 -6 -3 9 5 17 -9 51
-49 124 -31 56 -56 105 -56 108 0 8 42 -56 78 -119z m-2116 -192 c-36 -137
-40 -380 -7 -563 12 -71 27 -148 33 -169 7 -22 10 -41 8 -43 -6 -7 -76 157
-97 228 -33 114 -35 296 -5 414 21 81 78 225 89 225 2 0 -7 -42 -21 -92z
m2187 -52 c-15 -16 -26 5 -32 59 l-5 50 23 -50 c14 -30 19 -54 14 -59z m21
-47 c0 -11 3 -18 8 -16 19 12 21 -318 2 -408 -16 -79 -50 -188 -56 -182 -3 2
0 43 6 91 13 108 15 255 5 414 -7 120 -7 122 14 122 15 0 21 -6 21 -21z m-48
-51 c10 -152 6 -398 -7 -486 -19 -125 -33 -167 -72 -230 -18 -29 -30 -59 -27
-65 4 -7 4 -9 -1 -5 -4 4 -46 -28 -92 -72 -166 -157 -374 -296 -562 -375 -126
-53 -188 -66 -309 -64 -190 3 -200 4 -195 12 2 4 -3 7 -12 7 -26 0 -189 56
-253 87 -101 49 -200 118 -291 202 -49 47 -151 171 -151 184 0 7 25 27 56 45
30 19 84 58 119 88 35 30 65 54 68 54 2 0 -9 -43 -24 -96 -29 -96 -30 -114 -4
-114 8 0 18 21 26 55 7 30 16 55 22 55 5 0 26 -17 47 -38 28 -28 44 -57 60
-109 25 -82 38 -97 86 -96 48 1 111 42 194 125 71 71 198 218 232 268 12 19 9
-3 -13 -89 -49 -193 -36 -264 48 -263 132 2 332 198 591 579 115 168 168 233
239 293 60 50 167 109 200 110 19 0 22 -6 25 -62z m-1532 -596 c0 -22 -63 -56
-134 -72 -33 -7 -35 -6 -26 11 18 33 82 69 122 69 21 0 38 -4 38 -8z m1377
-259 c-106 -138 -273 -273 -422 -342 -71 -33 -233 -86 -240 -79 -3 2 31 19 75
37 97 41 226 113 323 183 83 60 228 181 271 227 45 47 42 37 -7 -26z m-1786
-20 c152 -193 336 -320 574 -395 79 -25 84 -28 40 -23 -164 18 -297 86 -455
232 -24 23 -46 40 -49 38 -9 -9 145 -140 225 -192 38 -25 -39 7 -95 39 -56 33
-152 106 -185 142 -69 78 -160 217 -139 215 4 0 40 -38 78 -85 39 -46 74 -84
79 -84 10 0 -1 14 -76 101 -53 60 -66 79 -54 79 2 0 28 -30 57 -67z m1798 -10
c-38 -64 -109 -141 -177 -196 -63 -50 -241 -147 -269 -147 -8 0 20 18 61 39
42 21 104 59 138 84 68 49 189 164 233 221 36 47 43 46 14 -1z m-1095 -432 c4
-5 -3 -7 -14 -4 -23 6 -26 13 -6 13 8 0 17 -4 20 -9z m93 -7 c-3 -3 -12 -4
-19 -1 -8 3 -5 6 6 6 11 1 17 -2 13 -5z"/>
<path d="M586 625 c4 -8 11 -15 16 -15 6 0 5 6 -2 15 -7 8 -14 15 -16 15 -2 0
-1 -7 2 -15z"/>
</g>
</svg>
